<?xml version="1.0" encoding="UTF-8" standalone="no"?>
<!-- Created with Inkscape (http://www.inkscape.org/) -->

<svg
   width="360"
   height="120"
   viewBox="0 0 360 120"
   version="1.1"
   id="SVGRoot"
   sodipodi:docname="404.svg"
   inkscape:version="1.2.2 (732a01da63, 2022-12-09)"
   xmlns:inkscape="http://www.inkscape.org/namespaces/inkscape"
   xmlns:sodipodi="http://sodipodi.sourceforge.net/DTD/sodipodi-0.dtd"
   xmlns="http://www.w3.org/2000/svg"
   xmlns:svg="http://www.w3.org/2000/svg">
  <sodipodi:namedview
     id="namedview13"
     pagecolor="#ffffff"
     bordercolor="#000000"
     borderopacity="0.25"
     inkscape:showpageshadow="2"
     inkscape:pageopacity="0.0"
     inkscape:pagecheckerboard="0"
     inkscape:deskcolor="#d1d1d1"
     showgrid="false"
     inkscape:zoom="2.89375"
     inkscape:cx="150.32397"
     inkscape:cy="80.345572"
     inkscape:window-width="1920"
     inkscape:window-height="991"
     inkscape:window-x="-9"
     inkscape:window-y="-9"
     inkscape:window-maximized="1"
     inkscape:current-layer="layer1" />
  <defs
     id="defs308" />
  <g
     id="layer1">
    <g
       aria-label="404"
       id="text341"
       style="font-weight:900;font-size:96px;font-family:'Daniel Black';-inkscape-font-specification:'Daniel Black,  Heavy'">
      <path
         d="m 125.8905,64.898499 q -0.375,0.234375 -0.9375,0.75 0.32812,0.140625 0.75,0.796875 -1.6875,2.203125 -2.0625,2.53125 -1.21875,1.359375 -2.57813,1.6875 l -12.75,-0.234375 -0.65625,0.65625 q -0.9375,3.046875 -2.85937,9.09375 -1.03125,3.375 -1.59375,10.3125 l 0.1875,11.203121 q -1.17188,0.42188 -1.17188,1.3125 0,0.23438 0.0469,0.5625 -1.45313,0.70313 -4.453126,1.875 -0.984375,-0.75 -1.875,-0.75 -0.84375,0 -1.3125,0.32813 -0.421875,-0.32813 -3.5625,-3.32813 0,0.0469 0,0.0469 0.09375,0 0.46875,-0.9375 -0.140625,-0.1875 -0.84375,-0.1875 -0.09375,0 -0.1875,0 -1.359375,-2.671876 -1.453125,-2.906251 V 85.664124 l 2.8125,-14.109375 -0.328125,-0.46875 h -2.015625 q -0.04687,0 -0.703125,0.234375 -0.75,0.234375 -0.984375,0.234375 l -10.453125,1.21875 q -0.328125,-0.28125 -2.015625,-0.28125 l -8.90625,1.3125 q -0.75,-0.46875 -1.546875,-0.46875 l -2.109375,0.46875 h -4.734375 q -0.28125,0 -0.75,0.515625 -0.46875,-0.515625 -1.359375,-0.515625 -1.359375,0.984375 -2.34375,0.984375 -1.734375,-0.375 -2.390625,-0.375 -0.140625,0 -0.28125,0.04687 -1.40625,-0.515625 -1.40625,-0.65625 0,0 0.04687,0 l -0.984375,0.328125 q -0.09375,-0.703125 -1.453125,-1.125 -1.6875,-0.515625 -2.203125,-1.265625 -0.328125,-1.21875 -1.734375,-2.8125 -1.40625,-1.59375 -2.625,-1.96875 0.421875,-0.75 0.703125,-4.875 3.796875,-7.125 11.015625,-21.28125 0.09375,-0.140625 0.09375,-0.890625 l 13.5,-26.53125 q 1.03125,-0.234375 2.34375,-0.65625 1.125,0.84375 2.4375,1.21875 0,0.703125 3.609375,4.6875 0,0.28125 0.140625,1.546875 0.140625,1.21875 0.140625,1.3125 0,4.96875 -7.875,21.234375 l -7.5,15.5625 q -0.28125,0.140625 -0.890625,1.125 v 1.03125 h 4.40625 l 19.96875,-1.3125 13.59375,-1.734375 q 0.9375,-3.140625 3.46875,-12.046875 0.140625,-0.515625 5.156251,-14.578125 1.40625,-3.84375 5.4375,-11.390625 1.64062,-2.109375 4.54687,-4.359375 h 0.9375 q -0.23437,0 -0.28125,0.04687 0.42188,0.28125 2.95313,0.84375 0.0937,0.234375 0.79687,2.484375 0.375,1.3125 2.39063,1.921875 0,0.140625 0.1875,1.3125 0.23437,1.125 0.23437,1.21875 l -0.51562,2.765625 q -1.73438,2.34375 -1.875,2.53125 -0.98438,1.734375 -1.92188,4.546875 -0.42187,1.5 -1.73437,5.765625 -2.95313,9.421875 -5.20313,18.421875 l 0.65625,0.515625 h 4.92188 q 6.5625,0 9.46875,7.5 z m -71.812501,8.859375 h -1.453125 l 1.03125,0.375 z"
         id="path343" />
      <path
         d="m 228.73425,49.992249 q -0.0469,0.1875 -0.375,1.125 0,0.234375 0,0.421875 0,3.890625 -1.78125,11.203125 -1.03125,2.765625 -3.51563,8.296875 -0.14062,1.03125 -2.10937,4.265625 -3.1875,7.265625 -13.64063,17.53125 -0.0937,0.28125 -0.42187,0.796875 -0.5625,0.1875 -1.78125,0.9375 0,0.375 0.42187,0.890625 h -0.65625 l -2.48437,2.15625 q -0.60938,0 -0.84375,0 -10.82813,8.015621 -25.07813,9.562501 -0.375,0 -0.98437,0.42187 -0.70313,0 -1.82813,0.0937 l -1.17187,0.0937 q -0.14063,0 -0.375,0 -3.375,0 -13.54688,-3.46875 -6.23437,-4.125 -10.96875,-8.859371 v -0.984375 q -0.98437,-1.21875 -2.71875,-3.84375 -9.70312,-11.578125 -10.59375,-27.46875 l -0.23437,-3.890625 q 0,-0.28125 0,-0.5625 0,-1.5 0.46875,-3.28125 0.9375,-8.015625 4.6875,-17.90625 0.14062,-0.421875 2.10937,-3.421875 4.35938,-9.1875 13.54688,-15.609375 0.42187,-0.46875 2.0625,-1.453125 1.3125,-0.5625 2.4375,-0.5625 1.26562,-0.984375 4.125,-1.453125 0.42187,-0.234375 1.26562,-0.703125 1.21875,-0.09375 2.4375,-0.65625 1.125,-0.140625 5.67188,-0.890625 3.32812,-0.5625 3.75,-0.5625 h 6.32812 l 5.29688,1.125 h 3.84375 q 0.0937,0 0.375,-0.234375 0.32812,-0.234375 0.42187,-0.234375 3.75,0.515625 4.17188,0.515625 0.1875,0.28125 0.60937,0.84375 l 1.21875,-0.1875 q 0.5625,0.28125 1.45313,0.890625 0,0 0,0 0,0 1.35937,-0.234375 l 4.5,1.453125 q -0.0937,0.140625 -0.42187,0.46875 0.5625,0.75 1.73437,0.75 0.70313,0 1.5,-0.140625 l 2.90625,1.921875 q -0.89062,-0.46875 -0.89062,-0.515625 0,0 0,0 -0.28125,0 -0.5625,0.515625 l 6.89062,4.921875 q 0.0469,0 0.0937,0 0.0937,0 0.23438,-0.140625 l -4.6875,-4.125 q 5.0625,2.625 8.67187,7.125 1.125,1.359375 4.54688,7.6875 0.14062,0.65625 0.32812,2.0625 1.03125,1.546875 1.03125,3.609375 0.42188,0.84375 0.42188,2.578125 0.75,1.03125 0.75,1.828125 z M 220.3905,27.070374 q 0,-0.234375 -0.46875,-0.703125 0,0.46875 0.46875,0.703125 z m -0.28125,24.140625 q 0,-3.84375 -1.73438,-9.234375 -0.98437,-3.140625 -4.03125,-6.5625 -3,-3.421875 -5.8125,-4.59375 -1.3125,-1.3125 -4.5,-2.671875 -2.95312,-1.21875 -4.35937,-1.734375 -2.20313,-0.421875 -5.90625,-1.453125 L 182.328,24.726624 q -0.14063,0 -0.23438,0 -1.96875,0 -7.6875,1.265625 -0.32812,0.28125 -1.07812,0.515625 h -1.125 q -0.0937,-0.234375 -0.23438,-0.609375 -0.0937,0 -0.65625,-0.140625 -0.51562,-0.140625 -0.60937,-0.140625 l -7.21875,3.234375 -8.67188,7.59375 q 0.0937,0.328125 0.23438,0.65625 l -3.46875,1.3125 q -0.375,-0.46875 -1.45313,-0.65625 -0.84375,1.921875 -1.40625,2.34375 -1.07812,1.546875 -2.71875,5.25 -0.9375,3.984375 -1.26562,5.4375 -0.32813,1.171875 -0.375,1.171875 -0.0469,0 -0.0469,-0.140625 v 3.328125 q 0,0.140625 -0.1875,0.515625 -0.23437,0.46875 -0.23437,0.609375 0,1.171875 0.70312,3.75 0,0.609375 -0.0937,1.59375 4.64063,14.71875 13.96875,23.625 3.375,3.234375 11.625,7.03125 6.42188,1.21875 8.01563,1.21875 6.79687,0 15.65625,-4.3125 11.8125,-5.765625 19.07812,-16.21875 7.26563,-10.453125 7.26563,-21.75 z"
         id="path345" />
      <path
         d="m 319.06237,64.898499 q -0.375,0.234375 -0.9375,0.75 0.32813,0.140625 0.75,0.796875 -1.6875,2.203125 -2.0625,2.53125 -1.21875,1.359375 -2.57812,1.6875 l -12.75,-0.234375 -0.65625,0.65625 q -0.9375,3.046875 -2.85938,9.09375 -1.03125,3.375 -1.59375,10.3125 l 0.1875,11.203121 q -1.17187,0.42188 -1.17187,1.3125 0,0.23438 0.0469,0.5625 -1.45312,0.70313 -4.45312,1.875 -0.98438,-0.75 -1.875,-0.75 -0.84375,0 -1.3125,0.32813 -0.42188,-0.32813 -3.5625,-3.32813 0,0.0469 0,0.0469 0.0937,0 0.46875,-0.9375 -0.14063,-0.1875 -0.84375,-0.1875 -0.0937,0 -0.1875,0 -1.35938,-2.671876 -1.45313,-2.906251 V 85.664124 l 2.8125,-14.109375 -0.32812,-0.46875 h -2.01563 q -0.0469,0 -0.70312,0.234375 -0.75,0.234375 -0.98438,0.234375 l -10.45312,1.21875 q -0.32813,-0.28125 -2.01563,-0.28125 l -8.90625,1.3125 q -0.75,-0.46875 -1.54687,-0.46875 l -2.10938,0.46875 h -4.73437 q -0.28125,0 -0.75,0.515625 -0.46875,-0.515625 -1.35938,-0.515625 -1.35937,0.984375 -2.34375,0.984375 -1.73437,-0.375 -2.39062,-0.375 -0.14063,0 -0.28125,0.04687 -1.40625,-0.515625 -1.40625,-0.65625 0,0 0.0469,0 l -0.98437,0.328125 q -0.0937,-0.703125 -1.45313,-1.125 -1.6875,-0.515625 -2.20312,-1.265625 -0.32813,-1.21875 -1.73438,-2.8125 -1.40625,-1.59375 -2.625,-1.96875 0.42188,-0.75 0.70313,-4.875 3.79687,-7.125 11.01562,-21.28125 0.0937,-0.140625 0.0937,-0.890625 l 13.5,-26.53125 q 1.03125,-0.234375 2.34375,-0.65625 1.125,0.84375 2.4375,1.21875 0,0.703125 3.60938,4.6875 0,0.28125 0.14062,1.546875 0.14063,1.21875 0.14063,1.3125 0,4.96875 -7.875,21.234375 l -7.5,15.5625 q -0.28125,0.140625 -0.89063,1.125 v 1.03125 h 4.40625 l 19.96875,-1.3125 13.59375,-1.734375 q 0.9375,-3.140625 3.46875,-12.046875 0.14063,-0.515625 5.15625,-14.578125 1.40625,-3.84375 5.4375,-11.390625 1.64063,-2.109375 4.54688,-4.359375 h 0.9375 q -0.23438,0 -0.28125,0.04687 0.42187,0.28125 2.95312,0.84375 0.0937,0.234375 0.79688,2.484375 0.375,1.3125 2.39062,1.921875 0,0.140625 0.1875,1.3125 0.23438,1.125 0.23438,1.21875 l -0.51563,2.765625 q -1.73437,2.34375 -1.875,2.53125 -0.98437,1.734375 -1.92187,4.546875 -0.42188,1.5 -1.73438,5.765625 -2.95312,9.421875 -5.20312,18.421875 l 0.65625,0.515625 h 4.92187 q 6.5625,0 9.46875,7.5 z m -71.8125,8.859375 h -1.45312 l 1.03125,0.375 z"
         id="path347" />
    </g>
  </g>
</svg>
