<?xml version="1.0" encoding="UTF-8" standalone="no"?>
<!-- Created with Inkscape (http://www.inkscape.org/) -->

<svg
   width="300"
   height="300"
   viewBox="0 0 300 300"
   version="1.1"
   id="SVGRoot"
   sodipodi:docname="TempLogo-2.svg"
   xml:space="preserve"
   inkscape:version="1.2.2 (732a01da63, 2022-12-09)"
   xmlns:inkscape="http://www.inkscape.org/namespaces/inkscape"
   xmlns:sodipodi="http://sodipodi.sourceforge.net/DTD/sodipodi-0.dtd"
   xmlns="http://www.w3.org/2000/svg"
   xmlns:svg="http://www.w3.org/2000/svg"><sodipodi:namedview
     id="namedview86"
     pagecolor="#505050"
     bordercolor="#ffffff"
     borderopacity="1"
     inkscape:showpageshadow="0"
     inkscape:pageopacity="0"
     inkscape:pagecheckerboard="1"
     inkscape:deskcolor="#505050"
     inkscape:document-units="px"
     showgrid="false"
     inkscape:zoom="1.4142136"
     inkscape:cx="53.386562"
     inkscape:cy="150.26019"
     inkscape:window-width="1392"
     inkscape:window-height="1032"
     inkscape:window-x="181"
     inkscape:window-y="0"
     inkscape:window-maximized="0"
     inkscape:current-layer="layer1"
     showguides="true" /><defs
     id="defs81"><clipPath
       id="clip0_1313_6342"><rect
         width="960"
         height="867.27301"
         fill="#ffffff"
         transform="translate(0,45.8594)"
         id="rect1380"
         x="0"
         y="0" /></clipPath><clipPath
       id="clip0_1313_6342-2"><rect
         width="960"
         height="867.27301"
         fill="#ffffff"
         transform="translate(0,45.8594)"
         id="rect5152"
         x="0"
         y="0" /></clipPath></defs><g
     inkscape:label="레이어 1"
     inkscape:groupmode="layer"
     id="layer1"><g
       id="g5122"
       transform="translate(-93.90906,28.424724)"
       inkscape:label="g5122"><g
         aria-label="Save "
         id="text270-2"
         style="font-size:80px"><path
           d="m 195.81082,67.682961 q 0,0.976562 -1.40625,4.648437 -0.66406,1.132813 -2.30469,3.4375 -1.01562,1.015625 -2.69531,3.007813 -0.9375,0.15625 -3.32031,1.796875 -0.97656,0.625 -3.94531,2.617187 -2.34375,0.898438 -6.79688,2.96875 -6.64062,2.03125 -6.64062,2.109375 0,0 0,0 -0.54688,0 -0.97657,-0.273437 -1.13281,0.585937 -1.32812,0.625 -0.11719,0 -0.27344,-0.117188 -0.15625,-0.117187 -0.23437,-0.117187 -1.05469,0 -3.24219,1.210937 0,0.429688 0.23437,0.429688 0.0781,0 0.15625,-0.03906 l -13.63281,3.007813 -7.96875,-0.78125 q -0.66406,-0.625 -2.22656,-1.835938 0,-0.46875 0.42969,-0.898437 l -1.05469,-0.9375 q 0,-0.625 0.19531,-0.78125 -0.3125,-0.585938 -1.01562,-1.445313 0.39062,-0.390625 0.58593,-2.65625 0.11719,-1.992187 1.44532,-2.8125 1.75781,-0.351562 5.3125,-1.328125 0.70312,-0.07813 3.75,-0.546875 0.54687,-0.429687 1.83593,-1.132812 l 1.95313,0.15625 q 0.50781,-0.664063 1.40625,-0.9375 2.61719,-0.703125 13.20312,-4.179688 7.73438,-2.578125 9.57032,-3.789062 1.52343,-0.585938 5.39062,-3.59375 -0.15625,-0.351563 -1.36719,-1.289063 -1.60156,-0.9375 -13.98437,-6.953125 -1.875,-0.625 -10.23438,-4.21875 -5.74218,-2.5 -7.96875,-4.257812 -3.78906,-1.367188 -8.04687,-6.289063 0,-0.429687 0.35156,-0.78125 -1.21094,-3.164062 -1.32812,-3.164062 -0.0391,0 -0.0391,0 0,-3.359375 0.78125,-4.882813 1.5625,-2.96875 6.67969,-4.648437 2.1875,-0.664063 8.59375,-2.617188 9.21875,-1.289062 9.21875,-1.40625 0,0 -0.0781,0 0.58593,0 0.70312,0.117188 1.91406,-0.976563 3.98438,-0.976563 h 5.19531 q 0.0781,0 0.42969,0.07813 0.27343,0.117188 0.46875,0.117188 h 2.96875 q 0.35156,0 3.86718,1.289062 1.17188,0.9375 4.02344,2.851563 v 1.367187 l 0.97656,1.601563 q 0.3125,0.625 0.3125,1.367187 0,0.273438 -0.0781,0.585938 l -0.23438,1.5625 -1.28906,1.210937 h -4.41406 q -0.50781,0 -1.99219,-0.507812 -3.24219,-0.3125 -4.0625,-0.3125 -2.14844,0 -12.96875,1.835937 -1.67969,0.273438 -5.11719,2.070313 0,0.429687 0.625,0.898437 0.89844,0.390625 9.57032,3.984375 0.46875,0.234375 2.77343,0.898438 2.46094,0.976562 7.26563,3.125 4.10156,0.976562 7.26562,3.359375 2.30469,0.742187 4.80469,2.890625 2.96875,2.5 3.63281,5.039062 1.09375,0.820313 1.75782,3.90625 0.54687,2.421875 0.54687,4.335938 z"
           style="font-weight:bold;font-family:'Daniel Black';-inkscape-font-specification:'Daniel Black,  Bold'"
           id="path342" /><path
           d="m 247.88113,85.182961 q -1.05468,1.289062 -2.89062,3.515625 l -1.36719,-0.234375 q -0.15625,0.429687 -0.625,1.015625 -0.54687,-0.234375 -1.60156,-0.9375 -0.0781,0.03906 -0.19531,0.03906 -1.13282,0 -4.33594,-2.578125 -0.70313,-1.523437 -3.51563,-5.351562 l -10.3125,7.734375 q 0,0.07813 0.19532,0.351562 0.19531,0.234375 0.19531,0.3125 -0.35156,0.585938 -3.39844,2.148438 -8.55469,2.617187 -8.55469,2.695312 0,0 0,0 -6.01562,0 -9.60937,-4.726562 -1.71875,-4.570313 -1.71875,-6.601563 0,-1.367187 3.16406,-8.476562 2.73438,-2.96875 3.98438,-3.046875 0.42968,-0.429688 5.78125,-4.101563 2.5,-1.015625 8.04687,-3.4375 5.58594,-1.328125 5.58594,-1.445312 0,0 -0.0391,0 0.46875,0 1.95312,0.15625 1.32813,0.117187 2.03125,0.117187 0.35156,0 0.50781,-0.03906 2.34375,1.054687 2.34375,2.304687 0,0.15625 -0.0781,0.351563 0.50781,0.390625 1.95312,3.28125 0.35157,-0.07813 0.78125,-0.07813 1.67969,0 3.32032,1.445312 2.57812,4.179688 4.57031,7.460938 2.77344,4.726562 3.82812,8.125 z M 228.62332,73.268898 h -1.99219 q -1.13281,0 -4.92187,1.523438 l -4.375,1.757812 q -2.5,1.445313 -5.35156,4.179688 l -0.15625,0.46875 2.30468,0.234375 q 8.04688,-2.070313 12.69532,-6.71875 0.23437,-0.234375 1.79687,-1.445313 z"
           style="font-weight:bold;font-family:'Daniel Black';-inkscape-font-specification:'Daniel Black,  Bold'"
           id="path344" /><path
           d="m 304.83426,50.456398 q 0,2.1875 -1.91406,5.273438 -0.54688,0.820312 -3.51563,5.46875 -1.79687,2.070312 -3.67187,5.585937 -0.625,0.898438 -1.32813,1.289063 -3.47656,5.585937 -10.58594,15.351562 -1.01562,1.953125 -3.59375,5.820313 -0.23437,0.859375 -0.85937,2.65625 -0.46875,0.15625 -1.36719,0.585937 0,0.507813 0.3125,0.507813 -0.19531,0.07813 -1.52344,0.585937 -1.28906,0.46875 -1.40625,0.46875 h -2.53906 q -2.22656,0 -3.59375,-1.640625 -1.875,-0.898437 -10.58594,-10.195312 -1.99218,-3.203125 -3.63281,-4.960938 -1.83594,-3.007812 -3.59375,-6.054687 -0.70312,-4.023438 -0.70312,-4.53125 0,-1.484375 1.05468,-2.851563 1.09375,-1.367187 2.30469,-1.367187 1.25,0 4.29688,2.8125 1.28906,0.820312 2.69531,2.5 4.49219,8.4375 10.625,12.109375 4.57031,-5.976563 13.82812,-17.8125 6.48438,-10.46875 13.55469,-17.421875 0.78125,0.546875 2.42188,0.820312 0.54687,0.46875 2.53906,2.539063 0.78125,0.859375 0.78125,2.460937 z"
           style="font-weight:bold;font-family:'Daniel Black';-inkscape-font-specification:'Daniel Black,  Bold'"
           id="path346" /><path
           d="m 344.1702,84.597023 q -0.50782,0.703125 -1.36719,2.34375 -0.54688,0 -0.82031,-0.234375 -0.42969,0.15625 -1.32813,0.703125 0.85938,0.351563 2.22656,1.132813 -0.50781,0.15625 -2.14843,1.640625 -1.64063,0.585937 -4.96094,1.328125 -1.01563,0.625 -1.40625,1.757812 l -9.96094,1.25 q -10.70312,-0.703125 -17.07031,-4.84375 -4.60938,-4.726562 -5.78125,-10.820312 -0.42969,-0.859375 -0.42969,-1.367188 0,-3.828125 3.28125,-9.257812 3.67188,-5.976563 8.08594,-7.773438 0.23437,-0.117187 1.28906,-0.117187 1.875,-1.601563 6.60156,-2.773438 4.17969,-1.015625 7.1875,-1.015625 2.61719,0 6.01563,1.914063 -0.0781,0.15625 -0.0781,0.9375 0.74219,0.15625 1.75782,0.429687 0,0.234375 0.50781,0.78125 0,1.445313 1.09375,3.75 v 1.71875 q 0,0.3125 -0.46875,0.78125 0.27344,0.390625 0.27344,0.859375 0,0.859375 -0.74219,1.953125 -0.0781,0.546875 -0.15625,1.5625 -0.89844,1.210938 -2.26563,3.632813 l -8.47656,6.132812 q 1.25,0.742188 6.875,0.898438 l 9.92188,0.234375 q 0.66406,1.132812 2.34375,2.460937 z m -18.67188,-17.5 q 0.0391,0.03906 0.0391,0.03906 -0.0781,0 -0.3125,-0.664063 -3.04687,1.210938 -4.0625,1.757813 -2.89062,1.523437 -3.90625,3.242187 0.27344,0 0.58594,0.273438 5.42969,-2.070313 7.65625,-4.648438 z"
           style="font-weight:bold;font-family:'Daniel Black';-inkscape-font-specification:'Daniel Black,  Bold'"
           id="path348" /></g><g
         aria-label="Eat"
         id="text1116"
         style="font-weight:bold;font-size:120px;font-family:'Daniel Black';-inkscape-font-specification:'Daniel Black,  Bold'"><path
           d="m 158.01076,138.0459 q -0.17578,-0.52735 -0.41016,-0.52735 0.46875,0.23438 0.46875,0.41016 0,0.0586 -0.0586,0.11719 z m 45.9375,-23.08594 q -2.75391,1.46484 -2.75391,3.57422 0,0.0586 0,0.17578 -1.40625,0.9375 -3.92578,2.69531 l 0.46875,0.41016 q 0.64453,0 0.87891,-0.41016 0.29296,0.70313 0.29296,1.05469 -0.17578,0 -1.52343,0.64453 l -0.58594,-0.9375 q -0.46875,0.9375 -1.75781,0.9375 -1.81641,0 -2.57813,0.23438 0.29297,0.29297 0.87891,0.29297 -6.21094,2.40234 -6.21094,2.57812 0,0.0586 0.0586,0.0586 -0.11718,-0.0586 -0.58593,-0.35156 -0.23438,0.46875 -1.17188,1.64063 h -3.04687 q -2.51953,2.98828 -5.625,2.98828 -0.46875,0 -0.9375,-0.11719 -6.03516,0.76172 -6.03516,2.51953 -0.70312,0 -1.28906,-0.70312 -4.10156,1.23047 -4.10156,1.46484 0,0 0.11718,0 -1.05468,0 -1.28906,-0.35156 -0.46875,0.52734 -1.23047,1.69922 -0.23437,-0.11719 -0.70312,-0.76172 -0.23438,0.11719 -0.82032,0.11719 -0.64453,0 -1.69921,-0.11719 -0.29297,0.64453 -0.29297,1.17187 0,0.64453 0.29297,1.28907 0,-0.17579 0,-0.23438 0,-0.52734 -0.64454,-0.52734 h -0.9375 q -0.76171,0.58593 -0.76171,1.28906 l -1.99219,-0.23438 q -0.11719,0 -1.64063,0.52735 -1.46484,0.46875 -1.75781,0.46875 0,-0.0586 -0.76172,-0.41016 -0.52734,0.58594 -0.52734,1.34766 l -7.91016,3.45703 q -0.8789,2.87109 -2.8125,7.55859 0.11719,0.82032 0.41016,2.63672 l 30.64453,-2.40234 h 8.84766 q 0,1.8164 -0.23438,1.8164 -0.0586,0 -0.11719,-0.11718 h 3.98438 q -0.0586,0.11718 -0.0586,0.23437 0,0.35156 0.29297,0.9961 -0.70312,0.82031 -0.82031,0.82031 -0.0586,0 -0.0586,0 1.17187,0.35156 3.22265,1.40625 -0.76172,1.34765 -2.7539,1.93359 l -0.46875,0.9961 q 0.11718,0.23437 0.23437,1.17187 v 1.40625 q -0.35156,0.52734 -1.8164,1.05469 0.17578,0.46875 0.41015,1.05469 l -12.48047,4.21875 q -1.64062,0 -2.16797,-0.41016 -0.9375,0.76172 -4.45312,1.28906 l -1.81641,2.05078 q -0.70312,-0.0586 -1.23047,-0.0586 -0.58593,0 -0.8789,0.0586 -0.17578,-0.11718 -0.23438,-0.11718 -0.29297,0.11718 -0.29297,0.76171 -0.17578,0 -3.6914,0.64454 -0.82031,0.11718 -1.52344,0.11718 -1.46484,0 -2.22656,-0.64453 l -9.08203,3.63281 q -1.23047,0 -3.63282,1.11329 -3.10546,1.40625 -3.57421,1.58203 -0.41016,0.64453 -1.69922,2.98828 -0.9961,3.39844 -2.10938,7.55859 l -0.0586,2.28516 39.02344,-3.04688 q 0.11718,0 1.34765,0.35157 1.23047,0.29296 1.28906,0.29296 h 5.625 q 1.23047,0.29297 4.7461,0.87891 l 7.38281,1.05469 q 1.81641,0.58594 5.39063,1.64062 1.69921,1.69922 5.27343,5.09766 v 3.45703 l -1.17187,1.34766 0.82031,0.9375 q -2.22656,0.8789 -2.34375,1.17187 0,0.0586 0.11719,0.0586 -0.11719,0.82031 -0.76172,2.63671 -0.41016,0.11719 -1.28906,0.11719 -0.9375,0 -2.40235,-0.11719 -0.29297,0.35157 -0.29297,0.9375 -1.52343,0.58594 -2.28515,1.46485 0,-0.0586 0,-0.11719 0,-0.46875 -1.05469,-0.87891 -0.29297,0.0586 -0.70312,0.0586 -0.82032,0 -1.9336,-0.17578 -0.76172,-0.0586 -1.99219,-0.23438 -1.28906,0 -2.46093,0.82031 l 0.8789,0.76172 q -1.8164,0 -2.34375,-0.23437 0.0586,-0.35156 0.52735,-0.87891 -0.35157,-0.11719 -1.58203,-0.11719 0,0 0.35156,0.9961 l -16.23047,0.35156 q -2.98828,0.0586 -3.69141,1.28906 l -0.70312,-0.58593 h -2.63672 l -12.12891,2.05078 q -1.05468,0 -1.28906,-0.41016 -0.0586,0.0586 -0.64453,0.52734 -0.58594,0.41016 -0.58594,0.41016 h -1.99219 q -0.41015,0.41016 -0.41015,1.28906 0,-0.52734 -0.35156,-0.8789 h -1.05469 q -0.64453,0.64453 -0.64453,0.9375 -0.9375,0.29297 -5.74219,0.52734 -0.70313,0.52734 -2.75391,1.17188 l -9.25781,1.17187 h -6.67969 l -0.76172,-2.10937 q -4.86328,-3.39844 -6.03515,-8.55469 -0.76172,-3.04688 -0.76172,-7.85156 0.17578,-0.64454 1.28906,-4.10157 2.92969,-8.67187 5.09766,-16.75781 -0.11719,-0.52734 -0.11719,-0.76172 1.23047,-2.16797 1.46484,-4.33594 -0.82031,-3.92578 -0.8789,-3.92578 -0.0586,0 -0.0586,0.0586 v -4.6875 q 0.64454,-0.70313 2.16797,-4.10157 0.9961,-2.16796 2.40235,-2.16796 0.17578,0 0.35156,0.0586 l 2.98828,-9.02344 v -1.46484 l -0.52734,-0.64453 h -1.81641 q -5.85937,-6.44532 -6.97266,-12.36328 l 2.05079,-7.85157 q 3.28125,-2.28515 3.45703,-2.51953 0.17578,0 0.70312,0.23438 0.58594,0.17578 0.70313,0.17578 3.39843,0 9.60937,-2.10938 1.58203,-1.52343 4.92188,-4.21875 2.98828,1.64063 4.21875,1.64063 0.46875,-0.11719 1.99218,-0.35156 0.87891,-0.11719 1.58204,-0.11719 0.70312,-0.0586 1.23046,0.11719 l 23.55469,-5.03907 q 1.05469,0 1.28906,0.35157 0.23438,-0.35157 0.23438,-0.76172 l 4.27734,-0.70313 q 1.28907,0.23438 4.21875,0.70313 1.69922,-0.9375 2.46094,-1.64063 0.52734,0 1.81641,0.35156 l 7.26562,-1.46484 q 0.41016,0.23438 2.8711,0.76172 0.64453,-0.82031 1.8164,-1.34766 0.64453,0 0.64453,0.9375 -0.8789,0.52735 -1.93359,0.87891 0.23437,0.23437 1.52344,0.23437 0.17578,-0.11718 3.45703,-0.99609 0.11719,0.11719 0.11719,0.17578 -0.0586,0.17578 -0.35157,0.35156 0.76172,0.9961 0.9375,0.9961 0.0586,0 0.0586,-0.0586 v 1.34766 q 0.29297,0.11719 1.28906,0.46875 0.58594,-0.58594 1.81641,-0.58594 3.10546,0.76172 5.15625,0.76172 0.23437,0.35156 0.23437,0.58594 0,0.11719 -0.0586,0.17578 z"
           id="path351" /><path
           d="m 275.78419,204.6084 q -1.58203,1.93359 -4.33593,5.27344 l -2.05078,-0.35157 q -0.23438,0.64453 -0.9375,1.52344 -0.82032,-0.35156 -2.40235,-1.40625 -0.11719,0.0586 -0.29297,0.0586 -1.69922,0 -6.5039,-3.86718 -1.05469,-2.28516 -5.27344,-8.02735 l -15.46875,11.60157 q 0,0.11718 0.29297,0.52734 0.29297,0.35156 0.29297,0.46875 -0.52735,0.87891 -5.09766,3.22266 -12.83203,3.92578 -12.83203,4.04296 0,0 0,0 -9.02344,0 -14.41406,-7.08984 -2.57813,-6.85547 -2.57813,-9.90234 0,-2.05078 4.7461,-12.71485 4.10156,-4.45312 5.97656,-4.57031 0.64453,-0.64453 8.67187,-6.15234 3.75,-1.52344 12.07032,-5.15625 8.3789,-1.99219 8.3789,-2.16797 0,0 -0.0586,0 0.70312,0 2.92969,0.23437 1.99218,0.17578 3.04687,0.17578 0.52734,0 0.76172,-0.0586 3.51562,1.58203 3.51562,3.45703 0,0.23438 -0.11718,0.52735 0.76172,0.58593 2.92968,4.92187 0.52735,-0.11719 1.17188,-0.11719 2.51953,0 4.98047,2.16797 3.86719,6.26953 6.85547,11.19141 4.16015,7.08984 5.74218,12.1875 z m -28.88671,-17.8711 h -2.98829 q -1.69921,0 -7.38281,2.28516 l -6.5625,2.63672 q -3.75,2.16797 -8.02734,6.26953 l -0.23438,0.70313 3.45703,0.35156 q 12.07032,-3.10547 19.04297,-10.07813 0.35157,-0.35156 2.69532,-2.16797 z"
           id="path353" /><path
           d="m 382.42482,172.96777 h -1.99219 q -0.46875,0.82032 -0.46875,1.40625 0,0.17578 0.0586,0.35157 -1.17188,0.76171 -1.81641,0.76171 -3.04688,3.16407 -3.69141,3.16407 h -5.03906 l -5.27344,1.28906 q -0.76172,-0.23438 -1.75781,-0.23438 l -7.5,1.40625 q -0.0586,0 -0.82031,-0.11718 -0.70313,-0.11719 -0.9961,-0.11719 -0.8789,0 -4.6289,0.58594 -2.34375,0.29297 -7.08985,1.05468 -2.16796,0.35157 -5.74218,2.40235 -2.75391,16.23047 -2.75391,17.63672 v 4.57031 q 0,0.35156 -0.9375,4.10156 -0.9375,3.86719 -0.9375,4.6875 -2.22656,0.9375 -6.67969,3.10547 -0.11718,-0.11719 -2.16797,-1.46484 -1.99218,-1.34766 -2.40234,-1.34766 -2.34375,-3.45703 -2.92969,-8.37891 -0.17578,-1.23046 -0.76172,-7.79296 l 1.17188,-9.4336 v -3.57422 l -0.41016,-0.52734 h -1.28906 l -13.76953,2.8125 q -0.11719,0 -0.23438,0 -0.58593,0 -1.17187,-0.41016 l -10.95703,2.16797 q -0.9375,-0.64453 -3.45703,-1.93359 -1.28907,-0.64453 -2.28516,-2.75391 -0.58594,-1.11328 -1.46484,-2.87109 -0.58594,-5.03906 -0.70313,-5.03906 0,0 0,0.0586 0,-1.75781 1.40625,-3.86719 1.28906,-1.93359 2.51953,-1.93359 0.0586,0 0.17578,0 l 21.38672,-1.46485 14.00391,-3.28125 q 1.40625,-10.54687 4.45312,-31.52343 2.69532,-8.4961 4.92188,-14.17969 2.28516,-2.63672 4.74609,-4.16016 0.76172,0.23438 6.79688,4.16016 1.11328,6.62109 1.17187,6.62109 0,0 0,0 l -5.03906,31.64063 v 4.57031 h 8.26172 q 0,0 0.0586,0 0.23438,0.0586 0.82032,-0.46875 h 1.69921 q 0.17579,0 0.9961,0.11719 0.8789,0.11719 1.11328,0.11719 0.11719,0 1.93359,-0.41016 1.81641,-0.41016 1.99219,-0.41016 0.64453,0 1.81641,0.58594 1.8164,-0.58594 8.78906,-0.58594 0,0 0,0 0,0.0586 8.4375,1.34766 2.10937,1.17187 5.68359,2.57812 0,0.17579 0,0.35157 0,0.76172 -0.41015,1.23047 0.29297,1.58203 1.64062,2.92968 0.17578,0 0.29297,0 0.76172,-0.0586 1.23047,0.46875 z"
           id="path355" /></g></g></g></svg>
