<?xml version="1.0" encoding="UTF-8" standalone="no"?>
<!-- Created with Inkscape (http://www.inkscape.org/) -->

<svg
   width="480"
   height="120"
   viewBox="0 0 480 120"
   version="1.1"
   id="SVGRoot"
   xmlns="http://www.w3.org/2000/svg"
   xmlns:svg="http://www.w3.org/2000/svg">
  <defs
     id="defs308" />
  <g
     id="layer1">
    <g
       aria-label="SaveEat"
       id="text270"
       style="font-size:93.3333px">
      <path
         d="m 80.04796,71.242435 q 0,1.139323 -1.640625,5.423175 -0.774739,1.321615 -2.688801,4.010416 -1.184895,1.184895 -3.14453,3.509113 -1.09375,0.182291 -3.873696,2.096353 -1.139323,0.729167 -4.602863,3.053384 -2.734374,1.048177 -7.929685,3.463541 -7.747393,2.369791 -7.747393,2.460936 0,0 0,0 -0.63802,0 -1.139322,-0.31901 -1.321614,0.683594 -1.549479,0.729166 -0.136718,0 -0.31901,-0.136718 -0.182292,-0.136719 -0.273437,-0.136719 -1.230469,0 -3.782551,1.41276 0,0.501302 0.273437,0.501302 0.09115,0 0.182292,-0.04557 l -15.904942,3.509106 -9.296871,-0.911451 q -0.77474,-0.729166 -2.597656,-2.141926 0,-0.546875 0.501302,-1.048177 l -1.230468,-1.093749 q 0,-0.729167 0.227865,-0.911458 -0.364584,-0.683594 -1.184896,-1.686198 0.455729,-0.455729 0.683594,-3.098957 0.136718,-2.324218 1.686197,-3.281249 2.05078,-0.410156 6.197914,-1.549478 0.820312,-0.09115 4.374999,-0.638021 0.63802,-0.501302 2.141926,-1.321614 l 2.278645,0.182292 q 0.592447,-0.774739 1.640624,-1.09375 3.053384,-0.820312 15.40364,-4.8763 9.023434,-3.007811 11.16536,-4.420571 1.777344,-0.683594 6.289061,-4.192707 Q 64.006299,68.2802 62.593539,67.18645 60.72505,66.092701 46.278441,59.074474 44.090942,58.345308 34.338342,54.152601 27.639125,51.235936 25.04147,49.185155 q -4.420571,-1.595051 -9.388017,-7.337237 0,-0.501301 0.410156,-0.911458 -1.41276,-3.691404 -1.549479,-3.691404 -0.04557,0 -0.04557,0 0,-3.91927 0.911458,-5.696613 1.822916,-3.46354 7.792966,-5.423175 2.552083,-0.774739 10.026038,-3.053384 10.755204,-1.503906 10.755204,-1.640624 0,0 -0.09115,0 0.683594,0 0.820313,0.136718 2.233072,-1.139322 4.648435,-1.139322 h 6.061196 q 0.09115,0 0.501302,0.09115 0.31901,0.136718 0.546875,0.136718 h 3.46354 q 0.410156,0 4.511717,1.503906 1.367187,1.093749 4.694009,3.326822 v 1.595051 l 1.139322,1.868489 q 0.364583,0.729166 0.364583,1.595051 0,0.319011 -0.09114,0.683594 l -0.273438,1.822916 -1.503906,1.41276 h -5.149737 q -0.592448,0 -2.324218,-0.592448 -3.782551,-0.364583 -4.739582,-0.364583 -2.506509,0 -15.130202,2.141926 -1.959635,0.31901 -5.97005,2.415364 0,0.501302 0.729166,1.048176 1.048177,0.455729 11.165361,4.648436 0.546875,0.273438 3.235676,1.048177 2.871092,1.139322 8.476559,3.645832 4.785154,1.139322 8.476559,3.919269 2.688801,0.865885 5.605467,3.372395 3.46354,2.916665 4.238279,5.878904 1.276042,0.957031 2.050781,4.55729 0.638021,2.825519 0.638021,5.058591 z"
         style="font-weight:bold;font-family:'Daniel Black';-inkscape-font-specification:'Daniel Black,  Bold'"
         id="path369" />
      <path
         d="m 140.79664,91.659094 q -1.23047,1.503906 -3.3724,4.101561 l -1.59505,-0.273437 q -0.18229,0.501302 -0.72917,1.184895 -0.63802,-0.273437 -1.86848,-1.093749 -0.0911,0.04557 -0.22787,0.04557 -1.32161,0 -5.05859,-3.007812 -0.82031,-1.777343 -4.10156,-6.243487 l -12.03125,9.023434 q 0,0.09115 0.22787,0.410156 0.22786,0.273438 0.22786,0.364583 -0.41015,0.683594 -3.96484,2.50651 -9.980465,3.053392 -9.980465,3.144532 0,0 0,0 -7.018227,0 -11.210934,-5.514323 -2.005207,-5.332029 -2.005207,-7.70182 0,-1.595051 3.691405,-9.889319 3.190103,-3.46354 4.648435,-3.554686 0.501302,-0.501302 6.744786,-4.785155 2.91667,-1.184895 9.38802,-4.010415 6.51693,-1.549478 6.51693,-1.686197 0,0 -0.0456,0 0.54688,0 2.27865,0.182292 1.54948,0.136718 2.36979,0.136718 0.41015,0 0.59245,-0.04557 2.73437,1.230469 2.73437,2.688801 0,0.182292 -0.0912,0.410156 0.59245,0.455729 2.27865,3.828124 0.41016,-0.09115 0.91146,-0.09115 1.95963,0 3.87369,1.686197 3.00781,4.876301 5.33203,8.704424 3.23568,5.514321 4.46615,9.479163 z M 118.3292,77.75936 h -2.32422 q -1.32161,0 -5.74219,1.777343 l -5.10416,2.050781 q -2.91667,1.686197 -6.243488,4.8763 l -0.182291,0.546875 2.688799,0.273437 q 9.38802,-2.415364 14.81119,-7.838539 0.27344,-0.273437 2.09636,-1.686197 z"
         style="font-weight:bold;font-family:'Daniel Black';-inkscape-font-specification:'Daniel Black,  Bold'"
         id="path371" />
      <path
         d="m 207.24192,51.144787 q 0,2.552082 -2.23307,6.152341 -0.63802,0.957031 -4.10156,6.380206 -2.09635,2.415364 -4.28385,6.516925 -0.72917,1.048176 -1.54948,1.503905 -4.05599,6.516925 -12.35026,17.91015 -1.18489,2.278645 -4.19271,6.790362 -0.27343,1.002604 -1.0026,3.098957 -0.54687,0.182292 -1.59505,0.683597 0,0.59244 0.36458,0.59244 -0.22786,0.0911 -1.77734,0.6836 -1.50391,0.54687 -1.64062,0.54687 h -2.96224 q -2.59766,0 -4.19271,-1.91406 -2.1875,-1.048176 -12.35026,-11.894526 -2.32421,-3.736978 -4.23828,-5.787758 -2.14192,-3.509113 -4.1927,-7.0638 -0.82031,-4.694008 -0.82031,-5.286456 0,-1.73177 1.23046,-3.326822 1.27605,-1.595051 2.68881,-1.595051 1.45833,0 5.01301,3.281249 1.50391,0.957031 3.14453,2.916665 5.24089,9.843746 12.39583,14.127599 5.33203,-6.972654 16.13281,-20.781242 7.5651,-12.213537 15.8138,-20.325513 0.91145,0.63802 2.82551,0.957031 0.63803,0.546875 2.96224,2.962238 0.91146,1.002604 0.91146,2.871093 z"
         style="font-weight:bold;font-family:'Daniel Black';-inkscape-font-specification:'Daniel Black,  Bold'"
         id="path373" />
      <path
         d="m 253.13384,90.975501 q -0.59245,0.820312 -1.59505,2.734374 -0.63802,0 -0.95703,-0.273438 -0.50131,0.182292 -1.54948,0.820313 1.0026,0.410156 2.59765,1.321614 -0.59245,0.182291 -2.50651,1.914061 -1.91406,0.683594 -5.78776,1.549479 -1.18489,0.729166 -1.64062,2.050776 l -11.62109,1.45834 q -12.48697,-0.82031 -19.91536,-5.651042 -5.3776,-5.514321 -6.74479,-12.623693 -0.5013,-1.002604 -0.5013,-1.595052 0,-4.466144 3.82813,-10.800777 4.28385,-6.972654 9.43359,-9.069007 0.27343,-0.136719 1.5039,-0.136719 2.1875,-1.868489 7.70182,-3.235675 4.8763,-1.184896 8.38542,-1.184896 3.05338,0 7.01822,2.233072 -0.0911,0.182292 -0.0911,1.09375 0.86588,0.182291 2.05078,0.501302 0,0.273437 0.59244,0.911458 0,1.686197 1.27605,4.374998 v 2.005208 q 0,0.364583 -0.54688,0.911458 0.31901,0.455729 0.31901,1.002603 0,1.002604 -0.86588,2.278645 -0.0911,0.638021 -0.1823,1.822916 -1.04817,1.41276 -2.64322,4.23828 l -9.88932,7.154945 q 1.45833,0.865885 8.02083,1.048177 l 11.57551,0.273437 q 0.77474,1.321614 2.73438,2.871093 z M 231.34999,70.558842 q 0.0456,0.04557 0.0456,0.04557 -0.0911,0 -0.36458,-0.774739 -3.55468,1.412759 -4.73958,2.05078 -3.37239,1.777343 -4.55729,3.782551 0.31901,0 0.68359,0.31901 6.33464,-2.415364 8.93229,-5.423175 z"
         style="font-weight:bold;font-family:'Daniel Black';-inkscape-font-specification:'Daniel Black,  Bold'"
         id="path375" />
      <path
         d="m 298.61559,39.888281 q -0.13672,-0.410156 -0.31901,-0.410156 0.36458,0.182291 0.36458,0.31901 0,0.04557 -0.0456,0.09115 z m 35.72915,-17.955723 q -2.14193,1.139323 -2.14193,2.779947 0,0.04557 0,0.136719 -1.09375,0.729166 -3.05338,2.096353 l 0.36458,0.319011 q 0.5013,0 0.6836,-0.319011 0.22786,0.546875 0.22786,0.820313 -0.13672,0 -1.1849,0.501301 l -0.45572,-0.729166 q -0.36459,0.729166 -1.36719,0.729166 -1.41276,0 -2.00521,0.182292 0.22787,0.227865 0.68359,0.227865 -4.83072,1.868488 -4.83072,2.005207 0,0.04557 0.0456,0.04557 -0.0911,-0.04557 -0.45573,-0.273437 -0.18229,0.364583 -0.91146,1.276041 h -2.36979 q -1.95963,2.324218 -4.375,2.324218 -0.36458,0 -0.72916,-0.09115 -4.69401,0.592448 -4.69401,1.959634 -0.54688,0 -1.0026,-0.546874 -3.19011,0.957031 -3.19011,1.139322 0,0 0.0911,0 -0.82031,0 -1.00261,-0.273437 -0.36458,0.410156 -0.95703,1.321614 -0.18229,-0.09115 -0.54687,-0.592448 -0.18229,0.09115 -0.63802,0.09115 -0.5013,0 -1.32162,-0.09115 -0.22786,0.501302 -0.22786,0.911458 0,0.501302 0.22786,1.002604 0,-0.136719 0,-0.182292 0,-0.410156 -0.5013,-0.410156 h -0.72916 q -0.59245,0.455729 -0.59245,1.002604 l -1.54948,-0.182292 q -0.0912,0 -1.27604,0.410157 -1.13932,0.364583 -1.36719,0.364583 0,-0.04557 -0.59245,-0.319011 -0.41015,0.455729 -0.41015,1.048177 l -6.15234,2.688801 q -0.6836,2.233072 -2.1875,5.878904 0.0911,0.638021 0.31901,2.050781 l 23.83462,-1.868489 h 6.88151 q 0,1.41276 -0.18229,1.41276 -0.0456,0 -0.0911,-0.09115 h 3.09896 q -0.0456,0.09115 -0.0456,0.182291 0,0.273438 0.22786,0.77474 -0.54687,0.63802 -0.63802,0.63802 -0.0456,0 -0.0456,0 0.91146,0.273438 2.50651,1.09375 -0.59245,1.048177 -2.14193,1.503906 l -0.36458,0.774739 q 0.0911,0.182291 0.18229,0.911458 V 57.6617 q -0.27344,0.410157 -1.41276,0.820313 0.13672,0.364583 0.31901,0.820312 l -9.70703,3.281249 q -1.27604,0 -1.68619,-0.319011 -0.72917,0.592448 -3.46354,1.002604 l -1.41276,1.595052 q -0.54688,-0.04557 -0.95703,-0.04557 -0.45573,0 -0.6836,0.04557 -0.13672,-0.09115 -0.18229,-0.09115 -0.22786,0.09115 -0.22786,0.592447 -0.13672,0 -2.8711,0.501302 -0.63802,0.09115 -1.18489,0.09115 -1.13932,0 -1.73177,-0.501302 l -7.0638,2.82552 q -0.95703,0 -2.82552,0.865885 -2.41537,1.09375 -2.77995,1.230468 -0.31901,0.501302 -1.32161,2.324218 -0.77474,2.643228 -1.64063,5.878904 l -0.0456,1.777343 30.35155,-2.36979 q 0.0911,0 1.04818,0.273437 0.95703,0.227864 1.0026,0.227864 h 4.375 q 0.95703,0.227865 3.6914,0.683594 l 5.74219,0.820312 q 1.41276,0.455729 4.19271,1.276041 1.32161,1.321614 4.10156,3.964843 v 2.688801 l -0.91146,1.048176 0.63802,0.729167 q -1.73177,0.683593 -1.82292,0.911458 0,0.04557 0.0912,0.04557 -0.0912,0.63802 -0.59245,2.05078 -0.31901,0.09115 -1.0026,0.09115 -0.72917,0 -1.86849,-0.09115 -0.22786,0.273437 -0.22786,0.729166 -1.1849,0.455729 -1.77735,1.139323 0,-0.04557 0,-0.09115 0,-0.364583 -0.82031,-0.683593 -0.22786,0.04557 -0.54687,0.04557 -0.63803,0 -1.50391,-0.136718 -0.59245,-0.04557 -1.54948,-0.182292 -1.0026,0 -1.91406,0.638021 l 0.68359,0.592447 q -1.41276,0 -1.82291,-0.182291 0.0456,-0.273438 0.41015,-0.683594 -0.27343,-0.09114 -1.23047,-0.09114 0,0 0.27344,0.774739 l -12.62369,0.273437 q -2.32422,0.04557 -2.87109,1.002604 l -0.54688,-0.455729 h -2.05078 l -9.43359,1.595052 q -0.82031,0 -1.0026,-0.319011 -0.0456,0.04557 -0.5013,0.410156 -0.45573,0.319011 -0.45573,0.319011 h -1.54948 q -0.31901,0.31901 -0.31901,1.002603 0,-0.410156 -0.27344,-0.683593 h -0.82031 q -0.5013,0.501302 -0.5013,0.729166 -0.72917,0.227865 -4.46615,0.410156 -0.54687,0.410156 -2.14192,0.911458 l -7.20052,0.911465 h -5.19531 l -0.59245,-1.640631 q -3.78255,-2.643228 -4.69401,-6.653643 -0.59245,-2.369791 -0.59245,-6.106769 0.13672,-0.501302 1.00261,-3.190103 2.27864,-6.744789 3.96484,-13.033849 -0.0911,-0.410156 -0.0911,-0.592448 0.95703,-1.686197 1.13933,-3.372394 -0.63803,-3.053384 -0.6836,-3.053384 -0.0456,0 -0.0456,0.04557 v -3.645831 q 0.5013,-0.546875 1.6862,-3.190103 0.77474,-1.686198 1.86849,-1.686198 0.13671,0 0.27343,0.04557 l 2.32422,-7.018226 v -1.139323 l -0.41016,-0.501302 H 267.307 q -4.55729,-5.013019 -5.42317,-9.615881 l 1.59505,-6.106769 q 2.55208,-1.777343 2.6888,-1.959635 0.13672,0 0.54688,0.182292 0.45573,0.136719 0.54687,0.136719 2.64323,0 7.47396,-1.640625 1.23047,-1.184895 3.82812,-3.281248 2.32422,1.276041 3.28125,1.276041 0.36458,-0.09115 1.54948,-0.273438 0.68359,-0.09115 1.23047,-0.09115 0.54687,-0.04557 0.95703,0.09115 l 18.3203,-3.919269 q 0.82031,0 1.00261,0.273437 0.18229,-0.273437 0.18229,-0.592447 l 3.32682,-0.546875 q 1.0026,0.182292 3.28125,0.546875 1.32161,-0.729167 1.91406,-1.276041 0.41016,0 1.41276,0.273437 l 5.65104,-1.139323 q 0.31901,0.182292 2.23307,0.592448 0.5013,-0.63802 1.41276,-1.048177 0.5013,0 0.5013,0.729167 -0.68359,0.410156 -1.5039,0.683593 0.18229,0.182292 1.18489,0.182292 0.13672,-0.09115 2.6888,-0.774739 0.0911,0.09115 0.0911,0.136718 -0.0456,0.136719 -0.27344,0.273438 0.59245,0.774739 0.72917,0.774739 0.0456,0 0.0456,-0.04557 v 1.048177 q 0.22787,0.09115 1.00261,0.364583 0.45572,-0.455729 1.41276,-0.455729 2.41536,0.592448 4.01041,0.592448 0.18229,0.273437 0.18229,0.455729 0,0.09115 -0.0456,0.136718 z"
         style="font-weight:bold;font-family:'Daniel Black';-inkscape-font-specification:'Daniel Black,  Bold'"
         id="path377" />
      <path
         d="m 390.21712,91.659094 q -1.23047,1.503906 -3.37239,4.101561 l -1.59505,-0.273437 q -0.18229,0.501302 -0.72917,1.184895 -0.63802,-0.273437 -1.86849,-1.093749 -0.0911,0.04557 -0.22786,0.04557 -1.32162,0 -5.05859,-3.007812 -0.82032,-1.777343 -4.10157,-6.243487 l -12.03124,9.023434 q 0,0.09115 0.22786,0.410156 0.22787,0.273438 0.22787,0.364583 -0.41016,0.683594 -3.96484,2.50651 -9.98047,3.053392 -9.98047,3.144532 0,0 0,0 -7.01823,0 -11.21093,-5.514323 -2.00521,-5.332029 -2.00521,-7.70182 0,-1.595051 3.69141,-9.889319 3.1901,-3.46354 4.64843,-3.554686 0.5013,-0.501302 6.74479,-4.785155 2.91667,-1.184895 9.38802,-4.010415 6.51692,-1.549478 6.51692,-1.686197 0,0 -0.0456,0 0.54687,0 2.27864,0.182292 1.54948,0.136718 2.36979,0.136718 0.41016,0 0.59245,-0.04557 2.73438,1.230469 2.73438,2.688801 0,0.182292 -0.0912,0.410156 0.59245,0.455729 2.27865,3.828124 0.41015,-0.09115 0.91145,-0.09115 1.95964,0 3.8737,1.686197 3.00781,4.876301 5.33203,8.704424 3.23567,5.514321 4.46614,9.479163 z M 367.74968,77.75936 h -2.32421 q -1.32162,0 -5.74219,1.777343 l -5.10416,2.050781 q -2.91667,1.686197 -6.24349,4.8763 l -0.18229,0.546875 2.6888,0.273437 q 9.38802,-2.415364 14.81119,-7.838539 0.27344,-0.273437 2.09635,-1.686197 z"
         style="font-weight:bold;font-family:'Daniel Black';-inkscape-font-specification:'Daniel Black,  Bold'"
         id="path379" />
      <path
         d="m 473.15978,67.049729 h -1.54948 q -0.36458,0.63802 -0.36458,1.093749 0,0.136719 0.0456,0.273438 -0.91145,0.592447 -1.41276,0.592447 -2.36979,2.460937 -2.87109,2.460937 h -3.91927 l -4.10156,1.002604 q -0.59245,-0.182292 -1.36719,-0.182292 l -5.83333,1.09375 q -0.0456,0 -0.63802,-0.09115 -0.54687,-0.09115 -0.77474,-0.09115 -0.68359,0 -3.60026,0.455729 -1.82291,0.227865 -5.51432,0.820312 -1.68619,0.273438 -4.46614,1.868489 -2.14193,12.623693 -2.14193,13.717443 v 3.554686 q 0,0.273437 -0.72916,3.190103 -0.72917,3.007811 -0.72917,3.645826 -1.73177,0.72917 -5.19531,2.41537 -0.0912,-0.0911 -1.6862,-1.13932 -1.54948,-1.04818 -1.86849,-1.04818 -1.82291,-2.688801 -2.27864,-6.516924 -0.13672,-0.957031 -0.59245,-6.061196 l 0.91146,-7.337237 v -2.779946 l -0.31901,-0.410157 h -1.00261 l -10.70963,2.1875 q -0.0911,0 -0.18229,0 -0.45573,0 -0.91146,-0.319011 l -8.52213,1.686198 q -0.72917,-0.501302 -2.6888,-1.503906 -1.0026,-0.501302 -1.77734,-2.141926 -0.45573,-0.865885 -1.13933,-2.233072 -0.45572,-3.91927 -0.54687,-3.91927 0,0 0,0.04557 0,-1.367187 1.09375,-3.007811 1.0026,-1.503906 1.95963,-1.503906 0.0456,0 0.13672,0 l 16.63411,-1.139322 10.89192,-2.552083 q 1.09375,-8.203122 3.46354,-24.51822 2.09636,-6.60807 3.82813,-11.028641 1.77734,-2.050781 3.6914,-3.235676 0.59245,0.182292 5.28646,3.235676 0.86588,5.149737 0.91146,5.149737 0,0 0,0 l -3.91927,24.609366 v 3.554686 h 6.42578 q 0,0 0.0456,0 0.18229,0.04557 0.63802,-0.364583 h 1.32161 q 0.13672,0 0.77474,0.09115 0.6836,0.09115 0.86589,0.09115 0.0911,0 1.5039,-0.319011 1.41276,-0.31901 1.54948,-0.31901 0.5013,0 1.41276,0.455729 1.41276,-0.455729 6.83594,-0.455729 0,0 0,0 0,0.04557 6.56249,1.048177 1.64063,0.911458 4.42058,2.005207 0,0.136719 0,0.273438 0,0.592447 -0.31901,0.957031 0.22786,1.230468 1.27604,2.278645 0.13672,0 0.22786,0 0.59245,-0.04557 0.95703,0.364583 z"
         style="font-weight:bold;font-family:'Daniel Black';-inkscape-font-specification:'Daniel Black,  Bold'"
         id="path381" />
    </g>
  </g>
</svg>
