<svg width="20" height="19" viewBox="0 0 20 19" fill="none" xmlns="http://www.w3.org/2000/svg">
    <path d="M19.2838 6.69686L13.333 5.83202L10.6729 0.439047C10.6002 0.291391 10.4807 0.171859 10.333 0.099203C9.96273 -0.0836095 9.51273 0.0687343 9.32757 0.439047L6.66741 5.83202L0.716633 6.69686C0.552571 6.7203 0.402571 6.79764 0.287727 6.91483C0.148887 7.05753 0.0723803 7.24952 0.0750171 7.4486C0.077654 7.64768 0.159219 7.83757 0.30179 7.97655L4.60726 12.1742L3.59007 18.1015C3.56622 18.2394 3.58148 18.3812 3.63411 18.5109C3.68675 18.6405 3.77467 18.7529 3.88789 18.8351C4.00111 18.9173 4.1351 18.9662 4.27468 18.9761C4.41426 18.9861 4.55383 18.9567 4.67757 18.8914L10.0002 16.093L15.3229 18.8914C15.4682 18.9687 15.6369 18.9945 15.7987 18.9664C16.2065 18.8961 16.4807 18.5094 16.4104 18.1015L15.3932 12.1742L19.6987 7.97655C19.8159 7.8617 19.8932 7.7117 19.9166 7.54764C19.9799 7.13748 19.694 6.7578 19.2838 6.69686Z" fill="#FADB14"/>
    </svg>
    