<?xml version="1.0" encoding="UTF-8" standalone="no"?>
<!-- Created with Inkscape (http://www.inkscape.org/) -->

<svg
   width="480px"
   height="240px"
   viewBox="0 0 480 240"
   version="1.1"
   id="SVGRoot"
   sodipodi:docname="Logo1.svg"
   xml:space="preserve"
   inkscape:version="1.2.2 (732a01da63, 2022-12-09)"
   xmlns:inkscape="http://www.inkscape.org/namespaces/inkscape"
   xmlns:sodipodi="http://sodipodi.sourceforge.net/DTD/sodipodi-0.dtd"
   xmlns="http://www.w3.org/2000/svg"
   xmlns:svg="http://www.w3.org/2000/svg"><sodipodi:namedview
     id="namedview86"
     pagecolor="#505050"
     bordercolor="#ffffff"
     borderopacity="1"
     inkscape:showpageshadow="0"
     inkscape:pageopacity="0"
     inkscape:pagecheckerboard="1"
     inkscape:deskcolor="#505050"
     inkscape:document-units="px"
     showgrid="false"
     inkscape:zoom="1"
     inkscape:cx="156.5"
     inkscape:cy="-118"
     inkscape:window-width="1920"
     inkscape:window-height="1017"
     inkscape:window-x="-8"
     inkscape:window-y="-8"
     inkscape:window-maximized="1"
     inkscape:current-layer="layer1"
     showguides="true" /><defs
     id="defs81"><clipPath
       id="clip0_1313_6342"><rect
         width="960"
         height="867.273"
         fill="white"
         transform="translate(0 45.8594)"
         id="rect1380" /></clipPath><clipPath
       id="clip0_1313_6342-2"><rect
         width="960"
         height="867.273"
         fill="white"
         transform="translate(0 45.8594)"
         id="rect5152" /></clipPath></defs><g
     inkscape:label="ë ˆì´ì–´ 1"
     inkscape:groupmode="layer"
     id="layer1"><text
       xml:space="preserve"
       style="font-size:93.3333px;fill:#000000"
       x="6.1112862"
       y="212.50725"
       id="text270"><tspan
         sodipodi:role="line"
         id="tspan268"
         x="6.1112862"
         y="212.50725"
         style="font-style:normal;font-variant:normal;font-weight:bold;font-stretch:normal;font-size:93.3333px;font-family:'Daniel Black';-inkscape-font-specification:'Daniel Black,  Bold'">SaveEat</tspan></text><g
       id="g5122"
       transform="translate(223.44574,-370.52395)"
       inkscape:label="g5122"><text
         xml:space="preserve"
         style="font-size:80px;fill:#000000"
         x="101.91254"
         y="92.847023"
         id="text270-2"><tspan
           sodipodi:role="line"
           id="tspan268-6"
           x="101.91254"
           y="92.847023"
           style="font-style:normal;font-variant:normal;font-weight:bold;font-stretch:normal;font-size:80px;font-family:'Daniel Black';-inkscape-font-specification:'Daniel Black,  Bold'">Save</tspan><tspan
           sodipodi:role="line"
           x="101.91254"
           y="205.30614"
           style="font-style:normal;font-variant:normal;font-weight:bold;font-stretch:normal;font-size:80px;font-family:'Daniel Black';-inkscape-font-specification:'Daniel Black,  Bold'"
           id="tspan1112" /></text><text
         xml:space="preserve"
         style="font-style:normal;font-variant:normal;font-weight:bold;font-stretch:normal;font-size:120px;font-family:'Daniel Black';-inkscape-font-specification:'Daniel Black,  Bold';fill:#000000"
         x="101.52638"
         y="216.85449"
         id="text1116"><tspan
           sodipodi:role="line"
           id="tspan1114"
           x="101.52638"
           y="216.85449"
           style="font-size:120px">Eat</tspan></text><g
         style="fill:none"
         id="g1405"
         transform="matrix(0.06264089,0,0,0.06264089,325.88238,44.268464)"
         inkscape:label="g1405"><g
           clip-path="url(#clip0_1313_6342)"
           id="g1378"
           transform="translate(-79.080143,-178.74279)"
           inkscape:label="g1378"><path
             d="m 152.546,359.271 c -41.63,-38.641 36.335,-60.592 61.761,-77.291 22.882,-11.419 62.617,-28.895 74.746,5.527 66.126,-33.109 133.218,-63.776 199.884,-95.738 5.09,-2.402 7.768,-4.438 7.287,-10.647 0.554,-29.181 41.873,-41.437 61.145,-21.204 1.338,1.346 4.989,1.368 7.196,0.73 97.844,-35.257 161.848,-43.002 208.032,66.106 24.716,55.599 50.048,110.979 72.725,167.418 29.375,72.181 56.697,168.91 -28.317,214.035 C 728.14,662.167 628.096,692.114 532.124,730.394 452.337,752.812 331.604,849.22 263.373,764.573 224.577,709.401 192.978,649.07 159.472,590.577 125.081,522.603 72.2931,414.471 152.546,359.271 Z M 753.78,278.53 c -24.207,-45.503 -45.463,-121.474 -112.359,-98.896 -91.076,24.401 -174.774,69.47 -260.524,107.691 -65.283,31.493 -129.784,64.951 -192.964,100.519 -26.548,15.221 -36.499,36.323 -30.552,66.226 6.164,28.597 14.412,58.486 27.169,84.643 44.265,-18.803 87.582,-37.121 130.756,-55.773 8.841,-6.074 3.348,-19.385 5.58,-28.325 29.518,-166.011 182.147,-227.464 316.041,-124.268 39.97,-16.77 77.938,-31.456 116.853,-51.817 z M 356.437,479.951 c 4.776,89.919 108.214,155.878 190.472,114.336 45.444,-23.024 85.208,-68.197 93.946,-119.041 C 644.46,413.564 609.65,356.004 553.581,331.196 453.5,281.267 361.609,384.167 356.437,479.951 Z"
             fill="#000000"
             id="path1352" /><path
             d="m 649.407,761.521 c -1.314,-22.877 21.204,-32.539 35.03,-18.215 25.068,39.719 41.999,84.702 63.836,126.407 15.284,26.901 -16.004,55.108 -38.479,30.774 -23.099,-43.338 -44.374,-92.91 -60.387,-138.966 z"
             fill="#000000"
             id="path1354" /><path
             d="m 249.863,81.8695 c 2.401,-28.6265 36.361,-31.464 47.686,-7.0047 10.562,20.2571 20.843,40.6702 30.768,61.2482 7.054,14.625 5.014,25.144 -5.051,30.952 -9.535,5.503 -19.733,2.067 -28.812,-10.993 -15.329,-24.383 -35.55,-46.525 -44.591,-74.2025 z"
             fill="#000000"
             id="path1356" /><path
             d="m 375.48,850.609 c -3.744,14.031 -9.718,34.267 -15.991,48.675 -11.542,25.409 -47.881,12.826 -41.949,-14.336 4.781,-15.872 10.24,-31.627 16.761,-46.86 10.633,-22.541 42.788,-13.976 41.179,12.521 z"
             fill="#000000"
             id="path1358" /><path
             d="M 60.563,377.146 C 39.1288,370.567 -5.76104,371.101 1.96587,338.306 13.0037,306.095 51.1473,330.128 72.491,337.56 c 20.736,10.141 10.9865,39.32 -11.928,39.586 z"
             fill="#000000"
             id="path1360" /><path
             d="m 909.661,597.338 c 12.529,2.056 27.082,6.841 39.845,15.558 21.219,14.178 3.21,49.791 -20.718,41.584 -12.041,-3.844 -23.83,-8.98 -34.987,-14.941 -21.365,-12.548 -10.551,-44.265 15.86,-42.201 z"
             fill="#000000"
             id="path1362" /><path
             d="m 671.809,78.9825 c 1.038,-17.5189 9.429,-37.1127 30.08,-31.5851 23.361,6.8673 15.244,33.3229 7.212,49.632 -4.056,8.7566 -13.349,12.2466 -22.309,9.9406 -12.064,-2.504 -15.164,-16.33 -14.009,-27.7802 -0.324,-0.0687 -0.649,-0.1375 -0.974,-0.2073 z"
             fill="#000000"
             id="path1364" /><path
             d="m 753.782,278.542 c -38.89,20.352 -76.89,35.052 -116.853,51.811 -133.962,-103.255 -286.585,-41.611 -316.045,124.275 -2.28,8.96 3.286,22.242 -5.577,28.324 -43.173,18.651 -86.491,36.97 -130.756,55.772 -12.752,-26.168 -20.998,-56.043 -27.169,-84.643 -5.945,-29.903 4.005,-51.005 30.553,-66.226 63.18,-35.569 127.681,-69.027 192.964,-100.517 85.75,-38.224 169.447,-83.291 260.525,-107.697 66.89,-22.559 88.139,53.389 112.358,98.901 z M 314.054,426.779 c -0.206,-35.492 -17.189,-56.077 -54.2,-48.805 -28.88,8.163 -83.543,26.098 -90.45,58.526 -4.962,20.174 -1.029,39.81 5.613,58.922 5.856,17.826 34.162,10.332 47.79,7.657 37.484,-15.01 94.424,-24.956 91.247,-76.3 z"
             fill="#ffffff"
             id="path1366"
             style="display:none" /><path
             d="m 356.434,479.953 c 5.135,-95.752 97.099,-198.723 197.147,-148.752 56.083,24.818 90.847,82.355 87.268,144.044 -8.721,50.872 -48.516,95.988 -93.939,119.049 C 464.662,635.83 361.19,569.872 356.434,479.953 Z m 22.903,-19.366 c -7.611,138.41 172.025,154.124 216.731,32.966 29.919,-62.847 0.789,-137.532 -68.045,-157.27 -74.346,-24.209 -147.174,61.351 -148.686,124.304 z"
             fill="#ffffff"
             id="path1368"
             style="display:none" /><path
             d="m 314.049,426.765 c -0.076,24.495 -9.612,43.158 -32.687,53.085 -29.181,11.68 -57.562,28.016 -89.963,26.709 -24.642,1.166 -26.513,-52.887 -22.001,-70.07 6.853,-32.393 61.596,-50.378 90.452,-58.533 36.958,-7.248 54.014,13.276 54.199,48.809 z m -105.074,45.831 c 21.664,-6.355 42.513,-16.404 63.345,-25.308 4.217,-1.965 6.995,-9.194 8.33,-14.526 1.192,-4.759 -0.668,-10.24 -0.924,-15.415 -0.289,-5.861 -3.416,-7.845 -8.775,-6.683 -17.343,4.241 -32.606,14.69 -48.431,22.665 -20.158,9.625 -18.073,19.112 -13.545,39.267 z"
             fill="#000000"
             id="path1370"
             style="display:inline" /><path
             d="m 379.341,460.585 c 1.456,-62.937 74.382,-148.532 148.691,-124.309 68.808,19.768 97.988,94.413 68.036,157.281 -44.717,121.14 -224.35,105.447 -216.727,-32.972 z m 29.782,-19.977 c -1.418,31.964 36.036,29.191 35.145,0.106 0.48,-29.395 37.93,-40.122 25.555,-58.369 -3.923,-5.377 -11.038,-7.533 -17.398,-4.032 -25.497,14.036 -41.492,34.66 -43.302,62.295 z"
             fill="#000000"
             id="path1372"
             style="display:inline" /><path
             d="m 208.981,472.602 c -4.502,-20.181 -6.629,-29.623 13.546,-39.266 15.824,-7.977 31.086,-18.424 48.429,-22.668 5.36,-1.16 8.487,0.823 8.776,6.684 0.256,5.176 2.116,10.656 0.924,15.416 -1.334,5.331 -4.112,12.561 -8.33,14.524 -20.832,8.907 -41.681,18.955 -63.345,25.31 z"
             fill="#ffffff"
             id="path1374"
             style="display:none" /><path
             d="m 409.122,440.61 c 1.81,-27.635 17.805,-48.258 43.302,-62.295 6.36,-3.501 13.475,-1.346 17.397,4.031 12.416,18.141 -25.056,28.987 -25.552,58.371 0.899,29.063 -36.575,31.872 -35.147,-0.107 z"
             fill="#ffffff"
             id="path1376"
             style="display:none" /></g></g></g><g
       style="fill:none"
       id="g5177"
       transform="matrix(0.11538927,0,0,0.11538927,188.35335,8.5749405)"><g
         clip-path="url(#clip0_1313_6342-2)"
         id="g5150"><path
           d="m 152.546,359.271 c -41.63,-38.641 36.335,-60.592 61.761,-77.291 22.882,-11.419 62.617,-28.895 74.746,5.527 66.126,-33.109 133.218,-63.776 199.884,-95.738 5.09,-2.402 7.768,-4.438 7.287,-10.647 0.554,-29.181 41.873,-41.437 61.145,-21.204 1.338,1.346 4.989,1.368 7.196,0.73 97.844,-35.257 161.848,-43.002 208.032,66.106 24.716,55.599 50.048,110.979 72.725,167.418 29.375,72.181 56.697,168.91 -28.317,214.035 C 728.14,662.167 628.096,692.114 532.124,730.394 452.337,752.812 331.604,849.22 263.373,764.573 224.577,709.401 192.978,649.07 159.472,590.577 125.081,522.603 72.2931,414.471 152.546,359.271 Z M 753.78,278.53 c -24.207,-45.503 -45.463,-121.474 -112.359,-98.896 -91.076,24.401 -174.774,69.47 -260.524,107.691 -65.283,31.493 -129.784,64.951 -192.964,100.519 -26.548,15.221 -36.499,36.323 -30.552,66.226 6.164,28.597 14.412,58.486 27.169,84.643 44.265,-18.803 87.582,-37.121 130.756,-55.773 8.841,-6.074 3.348,-19.385 5.58,-28.325 29.518,-166.011 182.147,-227.464 316.041,-124.268 39.97,-16.77 77.938,-31.456 116.853,-51.817 z M 356.437,479.951 c 4.776,89.919 108.214,155.878 190.472,114.336 45.444,-23.024 85.208,-68.197 93.946,-119.041 C 644.46,413.564 609.65,356.004 553.581,331.196 453.5,281.267 361.609,384.167 356.437,479.951 Z"
           fill="#000000"
           id="path5124" /><path
           d="m 649.407,761.521 c -1.314,-22.877 21.204,-32.539 35.03,-18.215 25.068,39.719 41.999,84.702 63.836,126.407 15.284,26.901 -16.004,55.108 -38.479,30.774 -23.099,-43.338 -44.374,-92.91 -60.387,-138.966 z"
           fill="#000000"
           id="path5126" /><path
           d="m 249.863,81.8695 c 2.401,-28.6265 36.361,-31.464 47.686,-7.0047 10.562,20.2571 20.843,40.6702 30.768,61.2482 7.054,14.625 5.014,25.144 -5.051,30.952 -9.535,5.503 -19.733,2.067 -28.812,-10.993 -15.329,-24.383 -35.55,-46.525 -44.591,-74.2025 z"
           fill="#000000"
           id="path5128" /><path
           d="m 375.48,850.609 c -3.744,14.031 -9.718,34.267 -15.991,48.675 -11.542,25.409 -47.881,12.826 -41.949,-14.336 4.781,-15.872 10.24,-31.627 16.761,-46.86 10.633,-22.541 42.788,-13.976 41.179,12.521 z"
           fill="#000000"
           id="path5130" /><path
           d="M 60.563,377.146 C 39.1288,370.567 -5.76104,371.101 1.96587,338.306 13.0037,306.095 51.1473,330.128 72.491,337.56 c 20.736,10.141 10.9865,39.32 -11.928,39.586 z"
           fill="#000000"
           id="path5132" /><path
           d="m 909.661,597.338 c 12.529,2.056 27.082,6.841 39.845,15.558 21.219,14.178 3.21,49.791 -20.718,41.584 -12.041,-3.844 -23.83,-8.98 -34.987,-14.941 -21.365,-12.548 -10.551,-44.265 15.86,-42.201 z"
           fill="#000000"
           id="path5134" /><path
           d="m 671.809,78.9825 c 1.038,-17.5189 9.429,-37.1127 30.08,-31.5851 23.361,6.8673 15.244,33.3229 7.212,49.632 -4.056,8.7566 -13.349,12.2466 -22.309,9.9406 -12.064,-2.504 -15.164,-16.33 -14.009,-27.7802 -0.324,-0.0687 -0.649,-0.1375 -0.974,-0.2073 z"
           fill="#000000"
           id="path5136" /><path
           d="m 753.782,278.542 c -38.89,20.352 -76.89,35.052 -116.853,51.811 -133.962,-103.255 -286.585,-41.611 -316.045,124.275 -2.28,8.96 3.286,22.242 -5.577,28.324 -43.173,18.651 -86.491,36.97 -130.756,55.772 -12.752,-26.168 -20.998,-56.043 -27.169,-84.643 -5.945,-29.903 4.005,-51.005 30.553,-66.226 63.18,-35.569 127.681,-69.027 192.964,-100.517 85.75,-38.224 169.447,-83.291 260.525,-107.697 66.89,-22.559 88.139,53.389 112.358,98.901 z M 314.054,426.779 c -0.206,-35.492 -17.189,-56.077 -54.2,-48.805 -28.88,8.163 -83.543,26.098 -90.45,58.526 -4.962,20.174 -1.029,39.81 5.613,58.922 5.856,17.826 34.162,10.332 47.79,7.657 37.484,-15.01 94.424,-24.956 91.247,-76.3 z"
           fill="#ffffff"
           id="path5138"
           style="display:none" /><path
           d="m 356.434,479.953 c 5.135,-95.752 97.099,-198.723 197.147,-148.752 56.083,24.818 90.847,82.355 87.268,144.044 -8.721,50.872 -48.516,95.988 -93.939,119.049 C 464.662,635.83 361.19,569.872 356.434,479.953 Z m 22.903,-19.366 c -7.611,138.41 172.025,154.124 216.731,32.966 29.919,-62.847 0.789,-137.532 -68.045,-157.27 -74.346,-24.209 -147.174,61.351 -148.686,124.304 z"
           fill="#ffffff"
           id="path5140"
           style="display:none" /><path
           d="m 314.049,426.765 c -0.076,24.495 -9.612,43.158 -32.687,53.085 -29.181,11.68 -57.562,28.016 -89.963,26.709 -24.642,1.166 -26.513,-52.887 -22.001,-70.07 6.853,-32.393 61.596,-50.378 90.452,-58.533 36.958,-7.248 54.014,13.276 54.199,48.809 z m -105.074,45.831 c 21.664,-6.355 42.513,-16.404 63.345,-25.308 4.217,-1.965 6.995,-9.194 8.33,-14.526 1.192,-4.759 -0.668,-10.24 -0.924,-15.415 -0.289,-5.861 -3.416,-7.845 -8.775,-6.683 -17.343,4.241 -32.606,14.69 -48.431,22.665 -20.158,9.625 -18.073,19.112 -13.545,39.267 z"
           fill="#000000"
           id="path5142"
           style="display:inline" /><path
           d="m 379.341,460.585 c 1.456,-62.937 74.382,-148.532 148.691,-124.309 68.808,19.768 97.988,94.413 68.036,157.281 -44.717,121.14 -224.35,105.447 -216.727,-32.972 z m 29.782,-19.977 c -1.418,31.964 36.036,29.191 35.145,0.106 0.48,-29.395 37.93,-40.122 25.555,-58.369 -3.923,-5.377 -11.038,-7.533 -17.398,-4.032 -25.497,14.036 -41.492,34.66 -43.302,62.295 z"
           fill="#000000"
           id="path5144"
           style="display:inline" /><path
           d="m 208.981,472.602 c -4.502,-20.181 -6.629,-29.623 13.546,-39.266 15.824,-7.977 31.086,-18.424 48.429,-22.668 5.36,-1.16 8.487,0.823 8.776,6.684 0.256,5.176 2.116,10.656 0.924,15.416 -1.334,5.331 -4.112,12.561 -8.33,14.524 -20.832,8.907 -41.681,18.955 -63.345,25.31 z"
           fill="#ffffff"
           id="path5146"
           style="display:none" /><path
           d="m 409.122,440.61 c 1.81,-27.635 17.805,-48.258 43.302,-62.295 6.36,-3.501 13.475,-1.346 17.397,4.031 12.416,18.141 -25.056,28.987 -25.552,58.371 0.899,29.063 -36.575,31.872 -35.147,-0.107 z"
           fill="#ffffff"
           id="path5148"
           style="display:none" /></g></g></g></svg>
